<svg xmlns="http://www.w3.org/2000/svg" xmlns:xlink="http://www.w3.org/1999/xlink" viewBox="0 0 525.82 588.37"><defs><style>.cls-1{fill:#001831;}.cls-2,.cls-50{fill:#d1e7fc;}.cls-23,.cls-3,.cls-45,.cls-50{font-size:9.94px;font-family:AeonikPro-Medium, AeonikPro Medium;font-weight:500;}.cls-23,.cls-3,.cls-36{fill:#0b4cbb;}.cls-3{letter-spacing:0.05em;}.cls-4{letter-spacing:0.05em;}.cls-5{letter-spacing:0.04em;}.cls-6{letter-spacing:0.05em;}.cls-7{letter-spacing:0.06em;}.cls-8{letter-spacing:0.06em;}.cls-9{letter-spacing:0.06em;}.cls-10{letter-spacing:0.06em;}.cls-11{letter-spacing:0.05em;}.cls-12{letter-spacing:0.06em;}.cls-13{letter-spacing:0.04em;}.cls-14{letter-spacing:0.06em;}.cls-15{letter-spacing:0.03em;}.cls-16{letter-spacing:0.06em;}.cls-17{letter-spacing:0.05em;}.cls-18{letter-spacing:0.04em;}.cls-19{letter-spacing:0.06em;}.cls-20,.cls-21,.cls-40,.cls-41,.cls-42,.cls-43,.cls-44,.cls-46,.cls-55{fill:none;}.cls-20,.cls-21{stroke:#0b4cbb;}.cls-20,.cls-21,.cls-40,.cls-41,.cls-42,.cls-43,.cls-44{stroke-linecap:round;}.cls-21{stroke-dasharray:8.42 8.42;}.cls-22{fill:#113161;}.cls-23{letter-spacing:0.04em;}.cls-24{letter-spacing:0.06em;}.cls-25{letter-spacing:0.04em;}.cls-26{letter-spacing:0.08em;}.cls-27{letter-spacing:0.05em;}.cls-28{letter-spacing:0.05em;}.cls-29{letter-spacing:0.06em;}.cls-30{letter-spacing:0.07em;}.cls-31{letter-spacing:-0.01em;}.cls-32{letter-spacing:0.04em;}.cls-33{letter-spacing:0.05em;}.cls-34{letter-spacing:0em;}.cls-35{letter-spacing:0.03em;}.cls-37{fill:#216ef2;}.cls-38{fill:#79a8f7;}.cls-39{fill:#fff;}.cls-40,.cls-41,.cls-42,.cls-43,.cls-44{stroke:#216ef2;}.cls-41{stroke-dasharray:7.5 7.5;}.cls-42{stroke-dasharray:7.63 7.63;}.cls-43{stroke-dasharray:8.13 8.13;}.cls-44{stroke-dasharray:7.98 7.98;}.cls-45{fill:#abf57a;}.cls-45,.cls-50{letter-spacing:0.08em;}.cls-46{stroke:#abf57a;}.cls-46,.cls-55{stroke-width:0.5px;}.cls-47{letter-spacing:0.08em;}.cls-48{letter-spacing:0em;}.cls-49{fill:url(#linear-gradient);}.cls-51{letter-spacing:0.08em;}.cls-52{letter-spacing:0.04em;}.cls-53{letter-spacing:0.08em;}.cls-54{letter-spacing:0.08em;}.cls-55{stroke:#001933;}.cls-56{fill:#001933;}</style><linearGradient id="linear-gradient" x1="173.18" y1="101.11" x2="352.9" y2="204.87" gradientUnits="userSpaceOnUse"><stop offset="0" stop-color="#a3c3f7"/><stop offset="0.67" stop-color="#c1dafa"/><stop offset="1" stop-color="#d1e7fc"/></linearGradient></defs><title>Asset 4</title><g id="Layer_2" data-name="Layer 2"><g id="Artwork"><path class="cls-1" d="M523.45,432.18,266.79,284a8,8,0,0,0-8,0L2.12,432.18a4,4,0,0,0,0,6.93L258.79,587.3a8,8,0,0,0,8,0L523.45,439.11A4,4,0,0,0,523.45,432.18Z"/><path class="cls-2" d="M499.24,431,292.63,550.28c-1.38.79-2.49.32-2.49-1v-13a5.16,5.16,0,0,1,2.49-3.92L499.24,413c1.37-.79,2.48-.32,2.48,1.05v13A5.15,5.15,0,0,1,499.24,431Z"/><text class="cls-3" transform="matrix(1, -0.58, 0, 1, 310.73, 534.54)">S<tspan class="cls-4" x="5.36" y="0">E</tspan><tspan class="cls-5" x="10.71" y="0">C</tspan><tspan class="cls-6" x="16.91" y="0">U</tspan><tspan class="cls-7" x="23.88" y="0">R</tspan><tspan class="cls-8" x="29.83" y="0">E</tspan><tspan class="cls-9" x="35.3" y="0">S </tspan><tspan class="cls-10" x="43.49" y="0">W</tspan><tspan class="cls-11" x="52.47" y="0">E</tspan><tspan class="cls-7" x="57.82" y="0">B </tspan><tspan class="cls-12" x="66.5" y="0">T</tspan><tspan class="cls-4" x="72.04" y="0">E</tspan><tspan class="cls-13" x="77.39" y="0">C</tspan><tspan class="cls-14" x="83.6" y="0">H</tspan><tspan class="cls-7" x="90.64" y="0">NO</tspan><tspan class="cls-15" x="105.21" y="0">L</tspan><tspan class="cls-16" x="110.2" y="0">O</tspan><tspan class="cls-17" x="117.66" y="0">G</tspan><tspan class="cls-9" x="124.59" y="0">Y &amp; </tspan><tspan class="cls-18" x="142.58" y="0">U</tspan><tspan x="149.43" y="0">S</tspan><tspan class="cls-11" x="154.79" y="0">E</tspan><tspan class="cls-19" x="160.14" y="0">R</tspan><tspan class="cls-7" x="166.1" y="0">S</tspan></text><line class="cls-20" x1="262.79" y1="394.8" x2="262.79" y2="398.8"/><line class="cls-21" x1="262.79" y1="407.22" x2="262.79" y2="470.39"/><line class="cls-20" x1="262.79" y1="474.6" x2="262.79" y2="478.6"/><path class="cls-22" d="M523.45,343,266.79,194.81a8,8,0,0,0-8,0L2.12,343a4,4,0,0,0,0,6.93L258.79,498.12a8,8,0,0,0,8,0L523.45,349.93A4,4,0,0,0,523.45,343Z"/><path class="cls-2" d="M488.7,348.29,303.16,455.4c-1.37.8-2.48.33-2.48-1v-13a5.17,5.17,0,0,1,2.48-3.92L488.7,330.28c1.37-.79,2.48-.32,2.48,1.05v13A5.17,5.17,0,0,1,488.7,348.29Z"/><text class="cls-23" transform="matrix(1, -0.58, 0, 1, 319.21, 440.47)">P<tspan class="cls-24" x="5.68" y="0">R</tspan><tspan class="cls-25" x="11.59" y="0">O</tspan><tspan class="cls-12" x="18.85" y="0">T</tspan><tspan class="cls-4" x="24.39" y="0">E</tspan><tspan class="cls-26" x="29.74" y="0">C</tspan><tspan class="cls-7" x="36.33" y="0">TS </tspan><tspan class="cls-27" x="50.06" y="0">A</tspan><tspan class="cls-28" x="56.63" y="0">L</tspan><tspan class="cls-7" x="61.81" y="0">L </tspan><tspan class="cls-29" x="69.8" y="0">T</tspan><tspan class="cls-14" x="75.34" y="0">H</tspan><tspan class="cls-7" x="82.38" y="0">R</tspan><tspan class="cls-30" x="88.33" y="0">E</tspan><tspan class="cls-31" x="93.88" y="0">A</tspan><tspan class="cls-9" x="99.84" y="0">T </tspan><tspan class="cls-32" x="108.08" y="0">S</tspan><tspan class="cls-33" x="113.34" y="0">U</tspan><tspan class="cls-7" x="120.31" y="0">R</tspan><tspan class="cls-34" x="126.25" y="0">F</tspan><tspan class="cls-35" x="131.11" y="0">A</tspan><tspan class="cls-13" x="137.48" y="0">C</tspan><tspan class="cls-8" x="143.68" y="0">E</tspan><tspan class="cls-9" x="149.15" y="0">S</tspan></text><path class="cls-36" d="M523.33,256.42,266.67,108.23a8,8,0,0,0-8,0L2,256.42a4,4,0,0,0,0,6.92L258.67,411.53a8,8,0,0,0,8,0L523.33,263.34A4,4,0,0,0,523.33,256.42Z"/><path class="cls-37" d="M523.33,245.83,266.67,97.64a8,8,0,0,0-8,0L2,245.83a4,4,0,0,0,0,6.93L258.67,400.94a8,8,0,0,0,8,0L523.33,252.76A4,4,0,0,0,523.33,245.83Z"/><path class="cls-38" d="M523.82,235.74,267.15,87.56a8,8,0,0,0-8,0L2.49,235.74a4,4,0,0,0,0,6.93L259.15,390.86a8,8,0,0,0,8,0L523.82,242.67A4,4,0,0,0,523.82,235.74Z"/><path class="cls-39" d="M353.48,317.15l10.14-5.86v3.11l-10.14,5.86ZM349,322.87l3.45-2V310.57L362,305v-3.15l-9.57,5.53v-6.83l11.21-6.48V291L349,299.43Zm83.16-48L442.27,269v-3.11l-10.15,5.86Zm8.51-18.37L431.06,262v-6.83l11.21-6.47v-3.15L427.61,254v23.44l3.45-2V265.16l9.57-5.53ZM390.9,275.22l-10.69,29.61,3.62-2.09,7.65-21.56.17-.1,4.12,6.8-7.28,4.2-1.28,3.62L397,290l2.3,3.76,3.62-2.09-10.62-17.3Zm65.6-37.88-1.44.84-10.69,29.6,3.62-2.09,7.66-21.56.16-.09,4.12,6.79-7.28,4.2-1.28,3.62L461.2,253l2.31,3.77,3.61-2.09ZM416,281.06l-.15.1v3.38a26.3,26.3,0,0,0,8-8.27l-2.39-1A18.6,18.6,0,0,1,416,281.06Zm-7.76-8.9,0-.1c.1-.2.2-.41.31-.61l.2-.38c.07-.14.13-.23.19-.34s.24-.43.37-.64l.07-.11a19.49,19.49,0,0,1,1.89-2.52l.08-.09c.2-.23.41-.45.63-.67s.4-.39.6-.58l.12-.11a15.53,15.53,0,0,1,2.63-1.95c2.33-1.34,4.55-1.65,6.13-.85l2.34-3.75c-.19-.08-.4-.14-.62-.21s-.41-.1-.62-.14l-.28-.05-.44-.05a11.81,11.81,0,0,0-6.64,1.84c-6.65,3.84-12,12.35-12,19,0,6.47,5.11,8.84,11.59,5.35v-3.43c-.09.05-.17.07-.25.11l-.08.05c-4.35,2.05-7.56.15-7.56-4.25v0A13.26,13.26,0,0,1,408.21,272.16Zm-41.52,17.67v2.51l6.1-3.52v20.29l3.48-2V283.67l-9.58,5.53Zm15.67-9.68-5,2.9v3.15l5-2.9Zm-41.42,23.92v16.7l-14-8.61-2,1.17v2.46l17.6,10.81,1.85-1.07V302.1l-2.78,1.6Zm-16,13.4v19.29l3.38-1.95V319.27l-3.38-2.08Z"/><line class="cls-40" x1="524.46" y1="265.71" x2="524.46" y2="269.71"/><line class="cls-41" x1="524.46" y1="277.21" x2="524.46" y2="333.47"/><line class="cls-40" x1="524.46" y1="337.22" x2="524.46" y2="341.22"/><line class="cls-40" x1="524.46" y1="353.53" x2="524.46" y2="357.53"/><line class="cls-42" x1="524.46" y1="365.15" x2="524.46" y2="422.37"/><line class="cls-40" x1="524.46" y1="426.18" x2="524.46" y2="430.18"/><line class="cls-40" x1="1.12" y1="265.71" x2="1.12" y2="269.71"/><line class="cls-41" x1="1.12" y1="277.21" x2="1.12" y2="333.47"/><line class="cls-40" x1="1.12" y1="337.22" x2="1.12" y2="341.22"/><line class="cls-40" x1="1.12" y1="353.53" x2="1.12" y2="357.53"/><line class="cls-42" x1="1.12" y1="365.15" x2="1.12" y2="422.37"/><line class="cls-40" x1="1.12" y1="426.18" x2="1.12" y2="430.18"/><line class="cls-40" x1="262.79" y1="504.43" x2="262.79" y2="508.43"/><line class="cls-43" x1="262.79" y1="516.56" x2="262.79" y2="577.55"/><line class="cls-40" x1="262.79" y1="581.61" x2="262.79" y2="585.61"/><line class="cls-40" x1="524.46" y1="158.83" x2="524.46" y2="162.83"/><line class="cls-41" x1="524.46" y1="170.33" x2="524.46" y2="226.59"/><line class="cls-40" x1="524.46" y1="230.34" x2="524.46" y2="234.34"/><line class="cls-40" x1="1.12" y1="158.83" x2="1.12" y2="162.83"/><line class="cls-41" x1="1.12" y1="170.33" x2="1.12" y2="226.59"/><line class="cls-40" x1="1.12" y1="230.34" x2="1.12" y2="234.34"/><line class="cls-40" x1="262.79" y1="310.62" x2="262.79" y2="314.62"/><line class="cls-44" x1="262.79" y1="322.6" x2="262.79" y2="382.43"/><line class="cls-40" x1="262.79" y1="386.42" x2="262.79" y2="390.42"/><line class="cls-40" x1="262.79" y1="415.25" x2="262.79" y2="419.25"/><line class="cls-43" x1="262.79" y1="427.38" x2="262.79" y2="488.36"/><line class="cls-40" x1="262.79" y1="492.43" x2="262.79" y2="496.43"/><text class="cls-45" transform="matrix(1, 0.58, 0, 1, 47.21, 348.77)">WEBSITES</text><path id="Ellipse_579" data-name="Ellipse 579" class="cls-46" d="M32.7,337a8.28,8.28,0,0,0,4,6.31c2.21,1.28,4,.52,4-1.69s-1.79-5-4-6.31-4-.52-4,1.69"/><path id="Vector_1618" data-name="Vector 1618" class="cls-46" d="M34.8,338.46l1.4,2,2.4-1.61"/><text class="cls-45" transform="matrix(1, 0.58, 0, 1, 118.82, 390.1)">APPLI<tspan class="cls-47" x="27.69" y="0">C</tspan><tspan class="cls-48" x="34.29" y="0">A</tspan><tspan x="40.4" y="0">TIONS</tspan></text><path id="Ellipse_579-2" data-name="Ellipse 579" class="cls-46" d="M104.3,378.28a8.28,8.28,0,0,0,4,6.31c2.21,1.28,4,.52,4-1.69s-1.79-5-4-6.31-4-.52-4,1.69"/><path id="Vector_1618-2" data-name="Vector 1618" class="cls-46" d="M106.4,379.79l1.4,2,2.4-1.61"/><text class="cls-45" transform="matrix(1, 0.58, 0, 1, 211.56, 443.61)">APIs</text><path id="Ellipse_579-3" data-name="Ellipse 579" class="cls-46" d="M199.73,433.33a8.28,8.28,0,0,0,4,6.31c2.21,1.28,4,.52,4-1.69s-1.79-5-4-6.31-4-.52-4,1.69"/><path id="Vector_1618-3" data-name="Vector 1618" class="cls-46" d="M201.83,434.85l1.4,2,2.4-1.61"/><path class="cls-2" d="M523.58,149.26,266.91,1.07a8,8,0,0,0-8,0L2.24,149.26a4,4,0,0,0,0,6.93L258.91,304.37a8,8,0,0,0,8,0L523.58,156.19A4,4,0,0,0,523.58,149.26ZM262.91,219c-62.74,0-113.6-29.46-113.6-65.79s50.86-65.8,113.6-65.8,113.6,29.46,113.6,65.8S325.65,219,262.91,219Z"/><path class="cls-49" d="M174.15,194.27C195,179.2,227,169.54,262.91,169.54s67.95,9.66,88.77,24.73c15.53-11.25,24.83-25.52,24.83-41.05,0-36.34-50.86-65.8-113.6-65.8s-113.6,29.46-113.6,65.8C149.31,168.75,158.61,183,174.15,194.27Z"/><path class="cls-36" d="M461,156.35v10a8.28,8.28,0,0,1-4,6.31L334.87,243.17c-2.21,1.28-4,.52-4-1.69v-10a8.28,8.28,0,0,1,4-6.31L457,154.66C459.2,153.38,461,154.14,461,156.35Z"/><text class="cls-50" transform="matrix(1, -0.58, 0, 1, 345.24, 231.72)">SOU<tspan class="cls-51" x="20.56" y="0">R</tspan><tspan x="26.73" y="0">CES OF</tspan><tspan class="cls-52" x="60.84" y="0"> </tspan><tspan class="cls-53" x="63.33" y="0">T</tspan><tspan class="cls-54" x="69.06" y="0">R</tspan><tspan x="75.25" y="0">AFFIC</tspan></text><g id="laptop--device-laptop-electronics-computer-notebook"><path id="Rectangle_475" data-name="Rectangle 475" class="cls-55" d="M39.45,149.07l9.1,5.25v-6.07L39.45,143Z"/><path id="Vector_1432" data-name="Vector 1432" class="cls-55" d="M39.45,149.07l-1.51,2.76,12.12,7-1.51-4.51Z"/><line class="cls-55" x1="43" y1="146.11" x2="45.01" y2="147.27"/></g><g id="controller-1--remote-quadcopter-drones-flying-drone-control-controller-technology-fly"><path id="Vector_1606" data-name="Vector 1606" class="cls-55" d="M82.6,174.2l1.11-7.11,12.45,7.19,1.11,8.39c.17,1.3-.67,1.93-1.87,1.41a3.07,3.07,0,0,1-.31-.16l-1.86-1.07-1.1-3.2-4.39-2.54L86.64,179,84.78,178a4.56,4.56,0,0,1-2.2-3.47,1.51,1.51,0,0,1,0-.3Z"/><path id="Vector_2928" data-name="Vector 2928" class="cls-55" d="M86.64,171v3.67"/><path id="Vector_2929" data-name="Vector 2929" class="cls-55" d="M84.81,171.76l3.66,2.11"/><path id="Ellipse_807" data-name="Ellipse 807" class="cls-55" d="M94.7,177.47c0,.81-.66,1.08-1.47.62a3,3,0,0,1-1.46-2.31c0-.81.65-1.09,1.46-.62A3,3,0,0,1,94.7,177.47Z"/></g><g id="iphone--android-phone-mobile-device-smartphone-iphone"><path id="Rectangle_37" data-name="Rectangle 37" class="cls-55" d="M143.66,213.26V200.75a2.28,2.28,0,0,0-1.1-1.74l-8.09-4.67c-.61-.35-1.11-.14-1.11.47v12.5a2.29,2.29,0,0,0,1.11,1.74l8.09,4.68C143.17,214.08,143.66,213.87,143.66,213.26Z"/><path id="Vector_196" data-name="Vector 196" class="cls-55" d="M137.41,198.25l2.21,1.27c.61.35,1.1.14,1.1-.47h0a2.29,2.29,0,0,0-1.1-1.74L137.41,196c-.61-.35-1.1-.14-1.1.47h0A2.29,2.29,0,0,0,137.41,198.25Z"/></g><path class="cls-56" d="M177,224.73l1.27.73,3.25,10.45-1.14-.66-.9-2.83-3.74-2.16-.9,1.79-1.1-.63Zm2.16,6.54-1.56-5L176,229.48Z"/><path class="cls-56" d="M188.6,234.07c0,1.61-1.13,2-2.84,1l-2.23-1.29v3.29l-1.06-.61V227.9l3.29,1.9A5.29,5.29,0,0,1,188.6,234.07Zm-2.94,0c1.13.65,1.85.42,1.85-.6a3.34,3.34,0,0,0-1.84-2.71l-2.14-1.24v3.32Z"/><path class="cls-56" d="M190.8,232.71v8.57l-1.06-.61V232.1Z"/><path id="Rectangle_982" data-name="Rectangle 982" class="cls-55" d="M223.25,253.66h0a4.61,4.61,0,0,1-2.22-3.5h0c0-1.22,1-1.64,2.22-.94h0a4.6,4.6,0,0,1,2.22,3.5h0C225.47,254,224.48,254.37,223.25,253.66Z"/><path id="Rectangle_983" data-name="Rectangle 983" class="cls-55" d="M222.32,259h0a3.13,3.13,0,0,1-1.49-2.36h0c0-.83.67-1.11,1.49-.64h0a3.11,3.11,0,0,1,1.5,2.37h0C223.82,259.22,223.15,259.51,222.32,259Z"/><path id="Rectangle_982-2" data-name="Rectangle 982" class="cls-55" d="M231.28,255h0a3.1,3.1,0,0,1-1.5-2.36h0c0-.83.67-1.11,1.5-.63h0a3.09,3.09,0,0,1,1.49,2.36h0C232.77,255.19,232.1,255.47,231.28,255Z"/><path id="Rectangle_983-2" data-name="Rectangle 983" class="cls-55" d="M234.69,265.14h0a4.92,4.92,0,0,1-2.37-3.74h0c0-1.31,1.06-1.76,2.37-1h0a4.9,4.9,0,0,1,2.37,3.74h0C237.06,265.45,236,265.89,234.69,265.14Z"/><path id="Rectangle_984" data-name="Rectangle 984" class="cls-55" d="M227.86,258.34h0a3.11,3.11,0,0,1-1.5-2.37h0c0-.82.67-1.11,1.5-.63h0a3.11,3.11,0,0,1,1.5,2.36h0C229.36,258.53,228.69,258.81,227.86,258.34Z"/><line class="cls-55" x1="226.65" y1="256.99" x2="223.55" y2="257.39"/><line class="cls-55" x1="226.58" y1="255.34" x2="225.15" y2="253.67"/><line class="cls-55" x1="230.47" y1="254.28" x2="228.67" y2="256.04"/><line class="cls-55" x1="232.42" y1="260.8" x2="229.3" y2="258.09"/><path id="Rectangle_983-3" data-name="Rectangle 983" class="cls-55" d="M227.86,263.12h0a3.1,3.1,0,0,1-1.5-2.36h0c0-.83.67-1.11,1.5-.63h0a3.08,3.08,0,0,1,1.5,2.36h0C229.36,263.31,228.69,263.6,227.86,263.12Z"/><line class="cls-55" x1="227.86" y1="260.12" x2="227.86" y2="258.33"/></g></g></svg>