<svg width="20" height="20" viewBox="0 0 20 20" fill="none" xmlns="http://www.w3.org/2000/svg">
<path fill-rule="evenodd" clip-rule="evenodd" d="M10 18.25C9.58579 18.25 9.25 17.9142 9.25 17.5V14.714C9.25 14.2998 9.58579 13.964 10 13.964C10.4142 13.964 10.75 14.2998 10.75 14.714V17.5C10.75 17.9142 10.4142 18.25 10 18.25ZM10 6.03618C9.58578 6.03618 9.25 5.70039 9.25 5.28618V2.5C9.25 2.08579 9.58578 1.75 10 1.75C10.4142 1.75 10.75 2.08579 10.75 2.5V5.28618C10.75 5.70039 10.4142 6.03618 10 6.03618ZM4.16657 14.773C3.87368 15.0658 3.87368 15.5407 4.16657 15.8336C4.45946 16.1265 4.93434 16.1265 5.22723 15.8336L7.1972 13.8636C7.49009 13.5708 7.49009 13.0959 7.1972 12.803C6.9043 12.5101 6.42943 12.5101 6.13654 12.803L4.16657 14.773ZM12.803 6.13648C12.5102 6.42937 12.5102 6.90424 12.803 7.19714C13.0959 7.49003 13.5708 7.49003 13.8637 7.19714L15.8338 5.22701C16.1267 4.93412 16.1267 4.45924 15.8338 4.16635C15.5409 3.87346 15.0661 3.87346 14.7732 4.16635L12.803 6.13648ZM2.5 9.25C2.08579 9.25 1.75 9.58579 1.75 10C1.75 10.4142 2.08579 10.75 2.5 10.75H5.28596C5.70017 10.75 6.03596 10.4142 6.03596 10C6.03596 9.58579 5.70017 9.25 5.28596 9.25H2.5ZM14.7138 9.25C14.2996 9.25 13.9638 9.58579 13.9638 10C13.9638 10.4142 14.2996 10.75 14.7138 10.75H17.5C17.9142 10.75 18.25 10.4142 18.25 10C18.25 9.58579 17.9142 9.25 17.5 9.25H14.7138ZM14.773 15.8336C15.0659 16.1265 15.5408 16.1265 15.8337 15.8336C16.1266 15.5407 16.1266 15.0658 15.8337 14.773L13.8637 12.803C13.5708 12.5101 13.0959 12.5101 12.803 12.803C12.5102 13.0959 12.5102 13.5708 12.803 13.8636L14.773 15.8336ZM6.13654 7.19714C6.42943 7.49003 6.90431 7.49003 7.1972 7.19714C7.49009 6.90425 7.49009 6.42937 7.1972 6.13648L5.22707 4.16635C4.93418 3.87346 4.45931 3.87346 4.16641 4.16635C3.87352 4.45925 3.87352 4.93412 4.16641 5.22701L6.13654 7.19714Z" fill="#1F58AC"/>
</svg>
