<svg width="20" height="20" viewBox="0 0 20 20" fill="none" xmlns="http://www.w3.org/2000/svg">
<path d="M12.7574 10.8736L12.7574 17C12.7574 17.2761 12.5335 17.5 12.2574 17.5L7.74265 17.5C7.4665 17.5 7.24265 17.2761 7.24265 17L7.24265 10.8736C7.24265 10.5974 7.01879 10.3736 6.74265 10.3736L3.66681 10.3736C3.22719 10.3736 3.00156 9.84702 3.30478 9.5287L9.63796 2.88007C9.835 2.67322 10.165 2.67322 10.362 2.88007L16.6952 9.5287C16.9984 9.84702 16.7728 10.3736 16.3332 10.3736L13.2574 10.3736C12.9812 10.3736 12.7574 10.5974 12.7574 10.8736Z" fill="#2D81FD" stroke="#2D81FD" stroke-width="1.5" stroke-linejoin="round"/>
</svg>
