<svg width="20" height="20" viewBox="0 0 20 20" fill="none" xmlns="http://www.w3.org/2000/svg">
<path fill-rule="evenodd" clip-rule="evenodd" d="M4.47309 4.47309C4.76403 4.18215 5.23574 4.18215 5.52668 4.47309L9.99988 8.94629L14.4731 4.47309C14.764 4.18215 15.2357 4.18215 15.5267 4.47309C15.8176 4.76403 15.8176 5.23574 15.5267 5.52668L11.0535 9.99988L15.5267 14.4731C15.8176 14.764 15.8176 15.2357 15.5267 15.5267C15.2357 15.8176 14.764 15.8176 14.4731 15.5267L9.99988 11.0535L5.52668 15.5267C5.23574 15.8176 4.76403 15.8176 4.47309 15.5267C4.18215 15.2357 4.18215 14.764 4.47309 14.4731L8.94629 9.99988L4.47309 5.52668C4.18215 5.23574 4.18215 4.76403 4.47309 4.47309Z" fill="#31343F"/>
</svg>
