<svg width="20" height="20" viewBox="0 0 20 20" fill="none" xmlns="http://www.w3.org/2000/svg">
<path fill-rule="evenodd" clip-rule="evenodd" d="M6.05911 1.75C6.07948 1.75 6.09993 1.75 6.12044 1.75H13.8797L13.9411 1.75C14.8467 1.74996 15.6094 1.74993 16.1753 1.83146C16.7361 1.91226 17.4017 2.11225 17.703 2.78311C18.0043 3.45396 17.7115 4.08436 17.3993 4.55714C17.0843 5.03426 16.5776 5.60428 15.9759 6.28117L15.9351 6.327L13.5999 8.95413C13.23 9.37023 13.0905 9.52942 12.9778 9.6954C12.6929 10.1151 12.5102 10.5957 12.4443 11.0987C12.4182 11.2976 12.4168 11.5093 12.4168 12.066V15.8333C12.4168 17.168 11.3348 18.25 10.0001 18.25C8.6654 18.25 7.58342 17.168 7.58342 15.8333V12.066C7.58342 11.5093 7.58195 11.2976 7.55589 11.0987C7.49001 10.5957 7.30729 10.1151 7.02237 9.6954C6.90969 9.52942 6.77015 9.37023 6.40029 8.95413L4.06507 6.327C4.05144 6.31167 4.03785 6.29639 4.02432 6.28117C3.42259 5.60428 2.91585 5.03426 2.60085 4.55714C2.2887 4.08436 1.99592 3.45396 2.29718 2.78311C2.59844 2.11225 3.26412 1.91226 3.82486 1.83146C4.39073 1.74993 5.15343 1.74996 6.05911 1.75ZM10.0001 16.75C10.5063 16.75 10.9168 16.3396 10.9168 15.8333V12.066C10.9168 12.0487 10.9168 12.0317 10.9168 12.0148C10.9167 11.5262 10.9167 11.2116 10.957 10.9039C11.0533 10.1687 11.3203 9.46634 11.7368 8.85291C11.9111 8.59609 12.1201 8.36098 12.4447 7.99586L12.4788 7.95758L14.814 5.33046C15.4673 4.59547 15.8995 4.10643 16.1476 3.73067C16.2624 3.55671 16.3049 3.45567 16.3199 3.4042C16.2715 3.38122 16.1677 3.34586 15.9614 3.31613C15.5157 3.25192 14.8631 3.25 13.8797 3.25H6.12044C5.13706 3.25 4.48444 3.25192 4.03878 3.31613C3.83245 3.34586 3.72869 3.38122 3.68025 3.4042C3.69526 3.45567 3.73777 3.55671 3.85262 3.73067C4.10071 4.10643 4.53285 4.59547 5.18618 5.33046L7.5214 7.95758C7.53289 7.9705 7.54423 7.98326 7.55543 7.99586C7.88004 8.36098 8.08908 8.59609 8.26342 8.85291C8.67984 9.46634 8.94689 10.1687 9.04319 10.9039C9.0835 11.2116 9.08347 11.5262 9.08342 12.0148L9.08342 12.066V15.8333C9.08342 16.3396 9.49383 16.75 10.0001 16.75ZM3.67339 3.36007C3.67405 3.36041 3.67468 3.36516 3.67329 3.37327C3.67203 3.36378 3.67272 3.35972 3.67339 3.36007ZM3.65251 3.41954C3.64737 3.42597 3.64341 3.42865 3.64271 3.42838C3.64201 3.42812 3.64458 3.4249 3.65251 3.41954ZM16.3575 3.42838C16.3568 3.42865 16.3528 3.42597 16.3477 3.41954C16.3556 3.4249 16.3582 3.42812 16.3575 3.42838ZM16.3269 3.37327C16.3255 3.36516 16.3261 3.36041 16.3268 3.36007C16.3275 3.35972 16.3281 3.36378 16.3269 3.37327Z" fill="#31343F"/>
</svg>
