<svg width="12" height="12" viewBox="0 0 12 12" fill="none" xmlns="http://www.w3.org/2000/svg">
<path fill-rule="evenodd" clip-rule="evenodd" d="M6 11C8.76142 11 11 8.76142 11 6C11 3.23858 8.76142 1 6 1C3.23858 1 1 3.23858 1 6C1 8.76142 3.23858 11 6 11ZM8.26517 4.76517C8.41161 4.61872 8.41161 4.38128 8.26517 4.23483C8.11872 4.08839 7.88128 4.08839 7.73483 4.23483L5.5 6.46967L4.76517 5.73483C4.61872 5.58839 4.38128 5.58839 4.23483 5.73483C4.08839 5.88128 4.08839 6.11872 4.23483 6.26517L5.23483 7.26517C5.30516 7.33549 5.40054 7.375 5.5 7.375C5.59946 7.375 5.69484 7.33549 5.76516 7.26517L8.26517 4.76517Z" fill="#00A344"/>
</svg>
