<svg width="20" height="20" viewBox="0 0 20 20" fill="none" xmlns="http://www.w3.org/2000/svg">
<path fill-rule="evenodd" clip-rule="evenodd" d="M4.16667 8.3335C3.25 8.3335 2.5 9.0835 2.5 10.0002C2.5 10.9168 3.25 11.6668 4.16667 11.6668C5.08333 11.6668 5.83333 10.9168 5.83333 10.0002C5.83333 9.0835 5.08333 8.3335 4.16667 8.3335ZM15.8333 8.3335C14.9167 8.3335 14.1667 9.0835 14.1667 10.0002C14.1667 10.9168 14.9167 11.6668 15.8333 11.6668C16.75 11.6668 17.5 10.9168 17.5 10.0002C17.5 9.0835 16.75 8.3335 15.8333 8.3335ZM8.33333 10.0002C8.33333 9.0835 9.08333 8.3335 10 8.3335C10.9167 8.3335 11.6667 9.0835 11.6667 10.0002C11.6667 10.9168 10.9167 11.6668 10 11.6668C9.08333 11.6668 8.33333 10.9168 8.33333 10.0002Z" fill="#31343F"/>
</svg>
