<svg width="20" height="20" viewBox="0 0 20 20" fill="none" xmlns="http://www.w3.org/2000/svg">
<path fill-rule="evenodd" clip-rule="evenodd" d="M8.90621 1.75L8.94152 1.75001H11.0585L11.0938 1.75C11.4112 1.74996 11.7092 1.74993 11.959 1.77844C12.2371 1.8102 12.5296 1.88362 12.8025 2.08033C13.0754 2.27705 13.2375 2.53125 13.3556 2.78509C13.4616 3.013 13.5559 3.29576 13.6562 3.59688L13.6674 3.63038L13.8739 4.25001H15.8333H17.5C17.9142 4.25001 18.25 4.58579 18.25 5.00001C18.25 5.41422 17.9142 5.75001 17.5 5.75001H16.535L16.0809 12.561L16.0782 12.6015C16.0118 13.5985 15.9581 14.4042 15.8481 15.0482C15.7343 15.7144 15.549 16.2867 15.1688 16.7824C14.9182 17.1091 14.6154 17.3923 14.2727 17.6207C13.7529 17.9671 13.1695 18.1139 12.4972 18.1831C11.8474 18.25 11.0399 18.25 10.0406 18.25H10H9.9594C8.96012 18.25 8.15265 18.25 7.5028 18.1831C6.83046 18.1139 6.24713 17.9671 5.72729 17.6207C5.38459 17.3923 5.08184 17.1091 4.8312 16.7824C4.451 16.2867 4.26568 15.7144 4.1519 15.0482C4.04193 14.4042 3.98823 13.5986 3.92177 12.6015L3.91907 12.561L3.465 5.75001H2.5C2.08579 5.75001 1.75 5.41422 1.75 5.00001C1.75 4.58579 2.08579 4.25001 2.5 4.25001H4.16667H6.1261L6.33264 3.63038L6.3438 3.59689C6.44413 3.29577 6.53835 3.01301 6.64438 2.78509C6.76246 2.53125 6.92459 2.27705 7.19752 2.08033C7.47045 1.88362 7.76287 1.8102 8.04102 1.77844C8.29077 1.74993 8.58881 1.74996 8.90621 1.75ZM7.70724 4.25001H12.2928L12.2443 4.10472C12.1289 3.75832 12.0611 3.55863 11.9956 3.41778C11.966 3.35424 11.9457 3.32282 11.9348 3.30824C11.9298 3.3015 11.927 3.29862 11.9264 3.29802L11.9254 3.2972L11.9243 3.29655C11.9236 3.29616 11.92 3.29439 11.912 3.29175C11.8947 3.28604 11.8585 3.27671 11.7888 3.26876C11.6345 3.25114 11.4236 3.25001 11.0585 3.25001H8.94152C8.57638 3.25001 8.36551 3.25114 8.21117 3.26876C8.14154 3.27671 8.10531 3.28604 8.08804 3.29175C8.08005 3.29439 8.07643 3.29616 8.07566 3.29655L8.07458 3.2972L8.07363 3.29802C8.07302 3.29862 8.07019 3.3015 8.06516 3.30824C8.05428 3.32282 8.03397 3.35424 8.00441 3.41778C7.93889 3.55863 7.87113 3.75832 7.75566 4.10472L7.70724 4.25001ZM4.96833 5.75001L5.41574 12.4612C5.48555 13.5083 5.53504 14.2368 5.6305 14.7957C5.72362 15.341 5.84898 15.6447 6.02138 15.8694C6.17177 16.0655 6.35342 16.2354 6.55904 16.3724C6.79476 16.5295 7.1061 16.6344 7.6564 16.691C8.22043 16.7491 8.95052 16.75 10 16.75C11.0495 16.75 11.7796 16.7491 12.3436 16.691C12.8939 16.6344 13.2052 16.5295 13.441 16.3724C13.6466 16.2354 13.8282 16.0655 13.9786 15.8694C14.151 15.6447 14.2764 15.341 14.3695 14.7957C14.465 14.2368 14.5144 13.5083 14.5843 12.4612L15.0317 5.75001H13.3333H6.66667H4.96833ZM8.33333 7.58334C8.74755 7.58334 9.08333 7.91913 9.08333 8.33334V14.1667C9.08333 14.5809 8.74755 14.9167 8.33333 14.9167C7.91912 14.9167 7.58333 14.5809 7.58333 14.1667V8.33334C7.58333 7.91913 7.91912 7.58334 8.33333 7.58334ZM12.4167 8.33334C12.4167 7.91913 12.0809 7.58334 11.6667 7.58334C11.2525 7.58334 10.9167 7.91913 10.9167 8.33334V11.6667C10.9167 12.0809 11.2525 12.4167 11.6667 12.4167C12.0809 12.4167 12.4167 12.0809 12.4167 11.6667V8.33334Z" fill="#31343F"/>
</svg>
