<svg width="20" height="20" viewBox="0 0 20 20" fill="none" xmlns="http://www.w3.org/2000/svg">
<path d="M12.7574 9.12644L12.7573 3C12.7573 2.72386 12.5335 2.5 12.2573 2.5L7.74264 2.5C7.4665 2.5 7.24264 2.72386 7.24264 3L7.24264 9.12644C7.24264 9.40258 7.01879 9.62644 6.74264 9.62644L3.66681 9.62644C3.22719 9.62644 3.00156 10.153 3.30477 10.4713L9.63796 17.1199C9.835 17.3268 10.165 17.3268 10.362 17.1199L16.6952 10.4713C16.9984 10.153 16.7728 9.62643 16.3332 9.62643L13.2574 9.62644C12.9812 9.62644 12.7574 9.40258 12.7574 9.12644Z" stroke="#31343F" stroke-width="1.5" stroke-linejoin="round"/>
</svg>
