<svg width="20" height="20" viewBox="0 0 20 20" fill="none" xmlns="http://www.w3.org/2000/svg">
<path fill-rule="evenodd" clip-rule="evenodd" d="M9.99981 1.75C6.76512 1.75 4.03664 4.15865 3.63543 7.36836L2.81133 13.9612C2.63728 15.3535 3.72295 16.5833 5.12614 16.5833H6.17904L6.18967 16.6072C6.85888 18.113 8.35205 19.0833 9.99978 19.0833C11.6475 19.0833 13.1407 18.113 13.8099 16.6072L13.8205 16.5833H14.8735C16.2767 16.5833 17.3623 15.3535 17.1883 13.9612L16.3642 7.36836C15.963 4.15866 13.2345 1.75 9.99981 1.75ZM13.3503 15.0833C13.3391 15.0831 13.3279 15.0831 13.3168 15.0833H6.68276C6.67163 15.0831 6.66048 15.0831 6.64931 15.0833H5.12614C4.6252 15.0833 4.23761 14.6443 4.29974 14.1472L5.12384 7.55441C5.43123 5.09535 7.52161 3.25 9.99981 3.25C12.478 3.25 14.5684 5.09535 14.8758 7.55442L15.6999 14.1472C15.762 14.6443 15.3744 15.0833 14.8735 15.0833H13.3503ZM7.91662 16.5833H12.0829C11.5838 17.2061 10.8219 17.5833 9.99978 17.5833C9.17771 17.5833 8.41572 17.2061 7.91662 16.5833Z" fill="#31343F"/>
</svg>
