<?xml version="1.0" encoding="utf-8"?><svg xmlns="http://www.w3.org/2000/svg" xmlns:xlink="http://www.w3.org/1999/xlink"><symbol fill="none" viewBox="0 0 20 20" id="blue-loader" xmlns="http://www.w3.org/2000/svg"><path fill-rule="evenodd" clip-rule="evenodd" d="M10 18.25a.75.75 0 0 1-.75-.75v-2.786a.75.75 0 0 1 1.5 0V17.5a.75.75 0 0 1-.75.75Zm0-12.214a.75.75 0 0 1-.75-.75V2.5a.75.75 0 1 1 1.5 0v2.786a.75.75 0 0 1-.75.75Zm-5.833 8.737a.75.75 0 1 0 1.06 1.06l1.97-1.97a.75.75 0 1 0-1.06-1.06l-1.97 1.97Zm8.636-8.637a.75.75 0 0 0 1.06 1.061l1.97-1.97a.75.75 0 0 0-1.06-1.06l-1.97 1.97ZM2.5 9.25a.75.75 0 0 0 0 1.5h2.786a.75.75 0 0 0 0-1.5H2.5Zm12.214 0a.75.75 0 0 0 0 1.5H17.5a.75.75 0 0 0 0-1.5h-2.786Zm.059 6.584a.75.75 0 0 0 1.06-1.061l-1.97-1.97a.75.75 0 0 0-1.06 1.06l1.97 1.97ZM6.137 7.197a.75.75 0 0 0 1.06-1.06l-1.97-1.97a.75.75 0 0 0-1.06 1.06l1.97 1.97Z" fill="#1F58AC"/></symbol><symbol fill="none" viewBox="0 0 20 20" id="blue-top-arrow-icon" xmlns="http://www.w3.org/2000/svg"><path d="M12.757 10.874V17a.5.5 0 0 1-.5.5H7.743a.5.5 0 0 1-.5-.5v-6.126a.5.5 0 0 0-.5-.5H3.667a.5.5 0 0 1-.362-.845L9.638 2.88a.5.5 0 0 1 .724 0l6.333 6.649a.5.5 0 0 1-.362.845h-3.076a.5.5 0 0 0-.5.5Z" fill="#2D81FD" stroke="#2D81FD" stroke-width="1.5" stroke-linejoin="round"/></symbol><symbol fill="none" viewBox="0 0 20 20" id="button-gray-plus-icon" xmlns="http://www.w3.org/2000/svg"><path fill-rule="evenodd" clip-rule="evenodd" d="M10 4.25a.75.75 0 0 1 .75.75v4.25H15a.75.75 0 0 1 0 1.5h-4.25V15a.75.75 0 0 1-1.5 0v-4.25H5a.75.75 0 0 1 0-1.5h4.25V5a.75.75 0 0 1 .75-.75Z" fill="#9CA6B9"/></symbol><symbol fill="none" viewBox="0 0 20 20" id="button-plus-blue-icon" xmlns="http://www.w3.org/2000/svg"><path fill-rule="evenodd" clip-rule="evenodd" d="M10 4.25a.75.75 0 0 1 .75.75v4.25H15a.75.75 0 0 1 0 1.5h-4.25V15a.75.75 0 0 1-1.5 0v-4.25H5a.75.75 0 0 1 0-1.5h4.25V5a.75.75 0 0 1 .75-.75Z" fill="#2D81FD"/></symbol><symbol fill="none" viewBox="0 0 20 20" id="button-plus-light-gray-icon" xmlns="http://www.w3.org/2000/svg"><path fill-rule="evenodd" clip-rule="evenodd" d="M10 4.25a.75.75 0 0 1 .75.75v4.25H15a.75.75 0 0 1 0 1.5h-4.25V15a.75.75 0 0 1-1.5 0v-4.25H5a.75.75 0 0 1 0-1.5h4.25V5a.75.75 0 0 1 .75-.75Z" fill="#4D535E"/></symbol><symbol fill="none" viewBox="0 0 20 20" id="button-plus-red-icon" xmlns="http://www.w3.org/2000/svg"><path fill-rule="evenodd" clip-rule="evenodd" d="M10 4.25a.75.75 0 0 1 .75.75v4.25H15a.75.75 0 0 1 0 1.5h-4.25V15a.75.75 0 0 1-1.5 0v-4.25H5a.75.75 0 0 1 0-1.5h4.25V5a.75.75 0 0 1 .75-.75Z" fill="#F52419"/></symbol><symbol fill="none" viewBox="0 0 20 20" id="button-plus-white-icon" xmlns="http://www.w3.org/2000/svg"><path fill-rule="evenodd" clip-rule="evenodd" d="M10 4.25a.75.75 0 0 1 .75.75v4.25H15a.75.75 0 0 1 0 1.5h-4.25V15a.75.75 0 0 1-1.5 0v-4.25H5a.75.75 0 0 1 0-1.5h4.25V5a.75.75 0 0 1 .75-.75Z" fill="#fff"/></symbol><symbol fill="none" viewBox="0 0 20 20" id="cancel-gray-icon" xmlns="http://www.w3.org/2000/svg"><path fill-rule="evenodd" clip-rule="evenodd" d="M4.473 4.473a.745.745 0 0 1 1.054 0L10 8.946l4.473-4.473a.745.745 0 0 1 1.054 1.054L11.054 10l4.473 4.473a.745.745 0 0 1-1.054 1.054L10 11.054l-4.473 4.473a.745.745 0 0 1-1.054-1.054L8.946 10 4.473 5.527a.745.745 0 0 1 0-1.054Z" fill="#31343F"/></symbol><symbol fill="none" viewBox="0 0 20 20" id="chevron-down-light-gray" xmlns="http://www.w3.org/2000/svg"><path fill-rule="evenodd" clip-rule="evenodd" d="M4.47 6.97a.75.75 0 0 1 1.06 0L10 11.44l4.47-4.47a.75.75 0 1 1 1.06 1.06l-5 5a.75.75 0 0 1-1.06 0l-5-5a.75.75 0 0 1 0-1.06Z" fill="#9CA6B9"/></symbol><symbol fill="none" viewBox="0 0 20 20" id="comment-gray-icon" xmlns="http://www.w3.org/2000/svg"><path fill-rule="evenodd" clip-rule="evenodd" d="M10 3.25A6.75 6.75 0 0 0 3.25 10c0 .688.146 1.397.357 2.06l.004.01c.218.681.385 1.206.502 1.602.112.38.197.707.218.963.026.302.039.564 0 .839a3.675 3.675 0 0 1-.23.806c-.056.146-.132.3-.228.47H10a6.75 6.75 0 0 0 0-13.5ZM1.882 17.075A.75.75 0 0 0 2.5 18.25H10A8.25 8.25 0 1 0 1.75 10c0 .89.186 1.758.429 2.516.222.694.384 1.202.495 1.58.116.394.156.582.163.665.024.285.023.406.009.504-.014.099-.046.215-.148.483-.082.216-.274.514-.816 1.327Zm4.035-8.742a.75.75 0 0 1 .75-.75h6.666a.75.75 0 0 1 0 1.5H6.667a.75.75 0 0 1-.75-.75Zm.75 2.584a.75.75 0 0 0 0 1.5H10a.75.75 0 0 0 0-1.5H6.667Z" fill="#31343F"/></symbol><symbol fill="none" viewBox="0 0 20 20" id="down-chevron-gray" xmlns="http://www.w3.org/2000/svg"><path fill-rule="evenodd" clip-rule="evenodd" d="M4.47 6.97a.75.75 0 0 1 1.06 0L10 11.44l4.47-4.47a.75.75 0 1 1 1.06 1.06l-5 5a.75.75 0 0 1-1.06 0l-5-5a.75.75 0 0 1 0-1.06Z" fill="#31343F"/></symbol><symbol fill="none" viewBox="0 0 20 20" id="filter-icon-black" xmlns="http://www.w3.org/2000/svg"><path fill-rule="evenodd" clip-rule="evenodd" d="M6.06 1.75H13.94c.906 0 1.668 0 2.234.081.561.081 1.227.281 1.528.952.301.671.009 1.301-.304 1.774-.315.477-.821 1.047-1.423 1.724l-.04.046L13.6 8.954c-.37.416-.51.575-.622.741-.285.42-.468.9-.534 1.404-.026.199-.027.41-.027.967v3.767a2.417 2.417 0 0 1-4.834 0v-3.767c0-.557-.001-.768-.027-.967a3.25 3.25 0 0 0-.534-1.404c-.112-.166-.252-.325-.622-.74L4.065 6.326l-.04-.046c-.602-.677-1.11-1.247-1.424-1.724-.312-.473-.605-1.103-.304-1.774.301-.67.967-.87 1.528-.952.566-.081 1.328-.081 2.234-.081Zm3.94 15c.506 0 .917-.41.917-.917v-3.818c0-.489 0-.803.04-1.111a4.749 4.749 0 0 1 .78-2.051c.174-.257.383-.492.708-.857l.034-.038 2.335-2.628c.653-.735 1.085-1.224 1.334-1.6.114-.173.157-.274.172-.326a1.322 1.322 0 0 0-.359-.088c-.445-.064-1.098-.066-2.081-.066H6.12c-.983 0-1.636.002-2.081.066-.207.03-.31.065-.359.088.015.052.058.153.173.327.248.375.68.864 1.333 1.6l2.335 2.627.034.038c.325.365.534.6.708.857a4.75 4.75 0 0 1 .78 2.05c.04.309.04.623.04 1.112v3.818c0 .507.41.917.917.917ZM3.673 3.36c.001 0 .002.005 0 .013V3.36Zm-.02.06-.01.008c-.001 0 .002-.003.01-.008Zm12.705.008c-.001 0-.005-.002-.01-.008.008.005.01.008.01.008Zm-.031-.055c-.002-.008 0-.013 0-.013v.013Z" fill="#31343F"/></symbol><symbol fill="none" viewBox="0 0 20 20" id="gray-loader" xmlns="http://www.w3.org/2000/svg"><path fill-rule="evenodd" clip-rule="evenodd" d="M10 18.25a.75.75 0 0 1-.75-.75v-2.786a.75.75 0 0 1 1.5 0V17.5a.75.75 0 0 1-.75.75Zm0-12.214a.75.75 0 0 1-.75-.75V2.5a.75.75 0 1 1 1.5 0v2.786a.75.75 0 0 1-.75.75Zm-5.833 8.737a.75.75 0 1 0 1.06 1.06l1.97-1.97a.75.75 0 1 0-1.06-1.06l-1.97 1.97Zm8.636-8.637a.75.75 0 0 0 1.06 1.061l1.97-1.97a.75.75 0 0 0-1.06-1.06l-1.97 1.97ZM2.5 9.25a.75.75 0 0 0 0 1.5h2.786a.75.75 0 0 0 0-1.5H2.5Zm12.214 0a.75.75 0 0 0 0 1.5H17.5a.75.75 0 0 0 0-1.5h-2.786Zm.059 6.584a.75.75 0 0 0 1.06-1.061l-1.97-1.97a.75.75 0 0 0-1.06 1.06l1.97 1.97ZM6.137 7.197a.75.75 0 0 0 1.06-1.06l-1.97-1.97a.75.75 0 0 0-1.06 1.06l1.97 1.97Z" fill="#4D535E"/></symbol><symbol fill="none" viewBox="0 0 12 12" id="green-success-icon" xmlns="http://www.w3.org/2000/svg"><path fill-rule="evenodd" clip-rule="evenodd" d="M6 11A5 5 0 1 0 6 1a5 5 0 0 0 0 10Zm2.265-6.235a.375.375 0 0 0-.53-.53L5.5 6.47l-.735-.735a.375.375 0 0 0-.53.53l1 1a.375.375 0 0 0 .53 0l2.5-2.5Z" fill="#00A344"/></symbol><symbol fill="none" viewBox="0 0 20 20" id="input-light-gray-plus" xmlns="http://www.w3.org/2000/svg"><path fill-rule="evenodd" clip-rule="evenodd" d="M10 4.25a.75.75 0 0 1 .75.75v4.25H15a.75.75 0 0 1 0 1.5h-4.25V15a.75.75 0 0 1-1.5 0v-4.25H5a.75.75 0 0 1 0-1.5h4.25V5a.75.75 0 0 1 .75-.75Z" fill="#9CA6B9"/></symbol><symbol fill="none" viewBox="0 0 20 20" id="light-gray-loader" xmlns="http://www.w3.org/2000/svg"><path fill-rule="evenodd" clip-rule="evenodd" d="M10 18.25a.75.75 0 0 1-.75-.75v-2.786a.75.75 0 0 1 1.5 0V17.5a.75.75 0 0 1-.75.75Zm0-12.214a.75.75 0 0 1-.75-.75V2.5a.75.75 0 1 1 1.5 0v2.786a.75.75 0 0 1-.75.75Zm-5.833 8.737a.75.75 0 1 0 1.06 1.06l1.97-1.97a.75.75 0 1 0-1.06-1.06l-1.97 1.97Zm8.636-8.637a.75.75 0 0 0 1.06 1.061l1.97-1.97a.75.75 0 0 0-1.06-1.06l-1.97 1.97ZM2.5 9.25a.75.75 0 0 0 0 1.5h2.786a.75.75 0 0 0 0-1.5H2.5Zm12.214 0a.75.75 0 0 0 0 1.5H17.5a.75.75 0 0 0 0-1.5h-2.786Zm.059 6.584a.75.75 0 0 0 1.06-1.061l-1.97-1.97a.75.75 0 0 0-1.06 1.06l1.97 1.97ZM6.137 7.197a.75.75 0 0 0 1.06-1.06l-1.97-1.97a.75.75 0 0 0-1.06 1.06l1.97 1.97Z" fill="#727A8C"/></symbol><symbol fill="none" viewBox="0 0 20 20" id="loader" xmlns="http://www.w3.org/2000/svg"><path fill-rule="evenodd" clip-rule="evenodd" d="M10 18.25a.75.75 0 0 1-.75-.75v-2.786a.75.75 0 0 1 1.5 0V17.5a.75.75 0 0 1-.75.75Zm0-12.214a.75.75 0 0 1-.75-.75V2.5a.75.75 0 1 1 1.5 0v2.786a.75.75 0 0 1-.75.75Zm-5.833 8.737a.75.75 0 1 0 1.06 1.06l1.97-1.97a.75.75 0 1 0-1.06-1.06l-1.97 1.97Zm8.636-8.637a.75.75 0 0 0 1.06 1.061l1.97-1.97a.75.75 0 0 0-1.06-1.06l-1.97 1.97ZM2.5 9.25a.75.75 0 0 0 0 1.5h2.786a.75.75 0 0 0 0-1.5H2.5Zm12.214 0a.75.75 0 0 0 0 1.5H17.5a.75.75 0 0 0 0-1.5h-2.786Zm.059 6.584a.75.75 0 0 0 1.06-1.061l-1.97-1.97a.75.75 0 0 0-1.06 1.06l1.97 1.97ZM6.137 7.197a.75.75 0 0 0 1.06-1.06l-1.97-1.97a.75.75 0 0 0-1.06 1.06l1.97 1.97Z" fill="#fff"/></symbol><symbol fill="none" viewBox="0 0 20 20" id="menu-icon" xmlns="http://www.w3.org/2000/svg"><path fill-rule="evenodd" clip-rule="evenodd" d="M4.167 8.334C3.25 8.334 2.5 9.084 2.5 10c0 .917.75 1.667 1.667 1.667.916 0 1.666-.75 1.666-1.667 0-.916-.75-1.666-1.666-1.666Zm11.666 0c-.916 0-1.666.75-1.666 1.666 0 .917.75 1.667 1.666 1.667.917 0 1.667-.75 1.667-1.667 0-.916-.75-1.666-1.667-1.666ZM8.333 10c0-.916.75-1.666 1.667-1.666s1.667.75 1.667 1.666c0 .917-.75 1.667-1.667 1.667S8.333 10.917 8.333 10Z" fill="#31343F"/></symbol><symbol fill="none" viewBox="0 0 20 20" id="outline-bell-gray-icon" xmlns="http://www.w3.org/2000/svg"><path fill-rule="evenodd" clip-rule="evenodd" d="M10 1.75a6.414 6.414 0 0 0-6.365 5.618l-.824 6.593a2.333 2.333 0 0 0 2.315 2.622H6.18l.01.024a4.17 4.17 0 0 0 7.62 0l.011-.024h1.053a2.333 2.333 0 0 0 2.315-2.622l-.824-6.593A6.414 6.414 0 0 0 10 1.75Zm3.35 13.333H5.126a.833.833 0 0 1-.826-.936l.824-6.593a4.914 4.914 0 0 1 9.752 0l.824 6.593a.833.833 0 0 1-.826.936H13.35Zm-5.433 1.5h4.166a2.67 2.67 0 0 1-4.166 0Z" fill="#31343F"/></symbol><symbol fill="none" viewBox="0 0 20 20" id="outline-bottom-arrow-icon" xmlns="http://www.w3.org/2000/svg"><path d="M12.757 9.126V3a.5.5 0 0 0-.5-.5H7.743a.5.5 0 0 0-.5.5v6.126a.5.5 0 0 1-.5.5H3.667a.5.5 0 0 0-.362.845l6.333 6.649a.5.5 0 0 0 .724 0l6.333-6.649a.5.5 0 0 0-.362-.845h-3.076a.5.5 0 0 1-.5-.5Z" stroke="#31343F" stroke-width="1.5" stroke-linejoin="round"/></symbol><symbol fill="none" viewBox="0 0 20 20" id="outline-delete-icon" xmlns="http://www.w3.org/2000/svg"><path fill-rule="evenodd" clip-rule="evenodd" d="M8.906 1.75h2.188c.317 0 .615 0 .865.028.278.032.57.106.844.302.272.197.434.451.553.705.106.228.2.51.3.812l.011.033.207.62H17.5a.75.75 0 0 1 0 1.5h-.965l-.454 6.811-.003.04c-.066.997-.12 1.803-.23 2.447-.114.666-.299 1.239-.68 1.734-.25.327-.553.61-.895.839-.52.346-1.104.493-1.776.562-.65.067-1.457.067-2.456.067H9.96c-1 0-1.807 0-2.457-.067-.673-.07-1.256-.216-1.776-.562a3.752 3.752 0 0 1-.896-.839c-.38-.495-.565-1.068-.68-1.734-.11-.644-.163-1.45-.23-2.447l-.002-.04-.454-6.811H2.5a.75.75 0 0 1 0-1.5h3.627l.206-.62.01-.033c.101-.301.195-.584.301-.812a1.73 1.73 0 0 1 .554-.705 1.73 1.73 0 0 1 .843-.302 8.1 8.1 0 0 1 .865-.028Zm-1.199 2.5h4.586l-.049-.145a7.363 7.363 0 0 0-.248-.687.64.64 0 0 0-.07-.12l-.002-.001s-.004-.003-.012-.005a.64.64 0 0 0-.123-.023 7.371 7.371 0 0 0-.73-.019H8.942c-.366 0-.576.001-.73.019a.64.64 0 0 0-.136.028h-.001l-.001.001-.009.01a.64.64 0 0 0-.06.11c-.066.14-.134.34-.25.687l-.048.145Zm-2.739 1.5.448 6.711c.07 1.047.119 1.776.214 2.335.094.545.219.849.391 1.073.15.197.332.366.538.503.236.157.547.262 1.097.319.564.058 1.295.059 2.344.059 1.05 0 1.78 0 2.344-.059.55-.057.861-.162 1.097-.319a2.25 2.25 0 0 0 .538-.503c.172-.224.297-.528.39-1.073.096-.56.145-1.288.215-2.335l.448-6.711H4.968Zm3.365 1.833a.75.75 0 0 1 .75.75v5.834a.75.75 0 0 1-1.5 0V8.333a.75.75 0 0 1 .75-.75Zm4.084.75a.75.75 0 0 0-1.5 0v3.334a.75.75 0 0 0 1.5 0V8.333Z" fill="#31343F"/></symbol><symbol fill="none" viewBox="0 0 20 20" id="outline-top-arrow-icon" xmlns="http://www.w3.org/2000/svg"><path d="M12.757 10.874V17a.5.5 0 0 1-.5.5H7.743a.5.5 0 0 1-.5-.5v-6.126a.5.5 0 0 0-.5-.5H3.667a.5.5 0 0 1-.362-.845L9.638 2.88a.5.5 0 0 1 .724 0l6.333 6.649a.5.5 0 0 1-.362.845h-3.076a.5.5 0 0 0-.5.5Z" stroke="#31343F" stroke-width="1.5" stroke-linejoin="round"/></symbol><symbol fill="none" viewBox="0 0 20 20" id="red-bottom-arrow-icon" xmlns="http://www.w3.org/2000/svg"><path d="M12.757 9.126V3a.5.5 0 0 0-.5-.5H7.743a.5.5 0 0 0-.5.5v6.126a.5.5 0 0 1-.5.5H3.667a.5.5 0 0 0-.362.845l6.333 6.649a.5.5 0 0 0 .724 0l6.333-6.649a.5.5 0 0 0-.362-.845h-3.076a.5.5 0 0 1-.5-.5Z" fill="#F52419" stroke="#F52419" stroke-width="1.5" stroke-linejoin="round"/></symbol><symbol fill="none" viewBox="0 0 12 12" id="warning-red-icon" xmlns="http://www.w3.org/2000/svg"><path fill-rule="evenodd" clip-rule="evenodd" d="M6 1.121c-.462 0-.798.278-1.086.64-.282.354-.582.872-.953 1.513l-.016.028L1.914 6.81l-.017.029c-.372.643-.673 1.162-.84 1.584-.171.432-.245.863-.014 1.264.231.4.642.554 1.1.622.45.066 1.05.066 1.793.066H8.064c.743 0 1.343 0 1.792-.066.46-.068.87-.221 1.1-.622.232-.4.158-.832-.013-1.264-.167-.422-.468-.941-.84-1.584l-.017-.029-2.03-3.508-.017-.028c-.37-.64-.67-1.159-.952-1.513-.289-.362-.625-.64-1.087-.64Zm.375 3.38a.375.375 0 0 0-.75 0v2a.375.375 0 1 0 .75 0v-2ZM6.5 8a.5.5 0 1 1-1 0 .5.5 0 0 1 1 0Z" fill="#F52419"/></symbol></svg>